<svg xmlns="http://www.w3.org/2000/svg" xmlns:xlink="http://www.w3.org/1999/xlink" id="body_3" preserveAspectRatio="xMinYMin meet" viewBox="0 0 816 1056"><defs><clipPath id="1"><path id="" clip-rule="evenodd" d="M0 792L0 0L0 0L612 0L612 0L612 792L612 792L0 792z" /></clipPath></defs><g transform="matrix(1.333333 0 0 1.333333 0 0)"><g clip-path="url(#1)"><path id="1" transform="matrix(1 0 0 -1 0 792)" d="M0 792L600 792L600 792L600 342L600 342L0 342z" stroke="none" fill="#CFCDCD" fill-rule="evenodd" /><path id="2" transform="matrix(1 0 0 -1 0 792)" d="M600 792L1200 792L1200 792L1200 342L1200 342L600 342z" stroke="none" fill="#CFCDCD" fill-rule="evenodd" /><path id="3" transform="matrix(1 0 0 -1 0 792)" d="M0 342L600 342L600 342L600 -108L600 -108L0 -108z" stroke="none" fill="#CFCDCD" fill-rule="evenodd" /><path id="4" transform="matrix(1 0 0 -1 0 792)" d="M600 342L1200 342L1200 342L1200 -108L1200 -108L600 -108z" stroke="none" fill="#CFCDCD" fill-rule="evenodd" /><g transform="matrix(0.3692308 0 0 0.3692308 95.85 77.33606)"><g transform="matrix(1 0 0 1 0 0)"><image x="0" y="0" xlink:href="img_06.png" width="1170" height="780" /></g></g></g></g></svg>