<svg xmlns="http://www.w3.org/2000/svg" xmlns:xlink="http://www.w3.org/1999/xlink" id="body_1" preserveAspectRatio="xMinYMin meet" viewBox="0 0 816 1056"><defs><clipPath id="1"><path id="" clip-rule="evenodd" d="M0 792L0 0L0 0L612 0L612 0L612 792L612 792L0 792z" /></clipPath></defs><g transform="matrix(1.333333 0 0 1.333333 0 0)"><g clip-path="url(#1)"><path id="1" transform="matrix(1 0 0 -1 0 792)" d="M0 792L600 792L600 792L600 342L600 342L0 342z" stroke="none" fill="#CFCDCD" fill-rule="evenodd" /><path id="2" transform="matrix(1 0 0 -1 0 792)" d="M600 792L1200 792L1200 792L1200 342L1200 342L600 342z" stroke="none" fill="#CFCDCD" fill-rule="evenodd" /><path id="3" transform="matrix(1 0 0 -1 0 792)" d="M0 342L600 342L600 342L600 -108L600 -108L0 -108z" stroke="none" fill="#CFCDCD" fill-rule="evenodd" /><path id="4" transform="matrix(1 0 0 -1 0 792)" d="M600 342L1200 342L1200 342L1200 -108L1200 -108L600 -108z" stroke="none" fill="#CFCDCD" fill-rule="evenodd" /><g transform="matrix(0.3934127 0 0 0.3904687 56.7 315.672)"><g transform="matrix(1 0 0 1 0 0)"><image x="0" y="0" xlink:href="img_01.png" width="630" height="640" /></g></g><g transform="matrix(0.3850781 0 0 0.3874418 304.55 315.672)"><g transform="matrix(1 0 0 1 0 0)"><image x="0" y="0" xlink:href="img_02.png" width="640" height="645" /></g></g></g></g></svg>